<svg xmlns="http://www.w3.org/2000/svg" viewBox="0 0 64 64">
  <defs>
    <linearGradient id="g" x1="0%" y1="0%" x2="100%" y2="100%">
      <stop offset="0%" stop-color="#4f46e5"/>
      <stop offset="100%" stop-color="#4338ca"/>
    </linearGradient>
  </defs>
  <rect width="64" height="64" rx="14" ry="14" fill="url(#g)"/>
  <path fill="#ffffff" d="M22.5 16h12.6c4.1 0 7.2 1 9.3 3.1 2.1 2.1 3.1 4.8 3.1 8.1 0 3.4-1.1 6.1-3.2 8.1-2.1 2-5.2 3-9.2 3h-6.6V48h-6V16zm6 17.3h6c2.2 0 3.8-.5 4.9-1.4 1.1-.9 1.6-2.2 1.6-3.9 0-1.7-.5-3-1.6-3.9-1.1-.9-2.7-1.4-4.9-1.4h-6v10.6z"/>
</svg>
